PathFileType	4	(X/Y/Z)	D:\TRACE\v60_Jaco2_6-2-23\BothDRS_Motion2_6-v60.trc
DataRate	CameraRate	NumFrames	NumMarkers	Units	OrigDataRate	OrigDataStartFrame	OrigNumFrames
100.00	100.00	      27	9	mm	100.00	4688	      7500
Frame#	Time	front left toe			Front right toe			aft left toe			aft right toe			Arm			FL body			FR body			AL Body			AR Body			
		X1	Y1	Z1	X2	Y2	Z2	X3	Y3	Z3	X4	Y4	Z4	X5	Y5	Z5	X6	Y6	Z6	X7	Y7	Z7	X8	Y8	Z8	X9	Y9	Z9	

4688	46.870	-320.30829	-5.98804	-279.24158	51.97331	52.21258	-241.89714	-334.89752	118.13405	381.63110	97.84455	40.11297	321.99539	-69.53533	1007.79517	-754.93506	-212.78082	540.28107	-405.85956	-52.27654	539.03955	-411.23593	-178.24365	609.21527	536.27911	-21.95911	602.79712	532.35059	
4689	46.880	-319.20529	-5.82981	-279.23904	49.16131	40.32021	-234.64978	-342.64487	107.16800	386.65356	99.27127	39.69579	322.21469	-66.49698	1006.85376	-752.74091	-212.20268	540.40894	-403.54346	-51.81969	538.40930	-408.78925	-178.85603	609.78052	538.64990	-22.40707	602.72461	534.99908	
4690	46.890	-318.24646	-5.40203	-278.95178	47.00728	29.23746	-227.95827	-349.33920	97.27328	390.97101	99.79726	39.62380	322.64313	-63.40454	1005.79004	-750.60272	-210.91907	540.32104	-401.03223	-50.77274	537.76398	-406.58374	-179.52272	610.15125	540.84680	-23.25253	602.66852	537.60645	
4691	46.900	-317.23282	-4.98660	-278.82620	44.34966	19.46607	-222.75722	-354.24750	87.96294	393.85858	100.71856	39.34677	322.97589	-59.91533	1005.07233	-748.04779	-210.03925	540.15442	-398.57938	-50.57368	537.04919	-403.60925	-180.35284	610.74908	543.16718	-23.71547	602.29919	540.23846	
4692	46.910	-316.22739	-4.60126	-278.52563	42.63385	9.17677	-218.32397	-356.71957	78.49671	397.07736	101.84465	38.90356	323.57910	-56.28745	1004.29114	-745.79071	-209.60413	540.16040	-396.00168	-49.68249	536.38776	-401.18384	-180.40056	611.11707	545.03802	-24.55471	602.10956	542.80261	
4693	46.920	-315.06818	-4.22957	-278.28244	40.92957	1.23864	-216.01016	-357.27124	70.43331	399.52048	102.48473	38.73430	323.95117	-52.57684	1003.74170	-743.30817	-208.97527	540.65704	-393.65567	-49.33227	536.01868	-398.58432	-181.40771	611.63287	548.01849	-24.79497	601.71619	545.87756	
4694	46.930	-313.84064	-3.95862	-277.89627	42.58791	0.95022	-218.30515	-356.77267	62.93043	401.73709	103.26202	38.43546	324.42963	-49.00605	1002.97180	-740.64581	-208.74947	541.07672	-391.24216	-49.09901	535.60864	-395.64703	-181.69603	611.64886	550.36005	-25.70643	601.08105	548.35193	
4695	46.940	-312.59897	-3.49194	-277.52472	44.56585	0.54340	-218.26910	-355.34531	56.19644	403.82883	104.81615	38.07574	325.07526	-45.01229	1002.18567	-737.72028	-208.22704	542.00848	-388.91953	-48.59544	536.12836	-392.82285	-182.62250	610.93085	552.48724	-26.25848	600.17932	551.35693	
4696	46.950	-311.65924	-2.90690	-277.31750	45.74186	1.16493	-216.91736	-352.51004	49.08067	405.01495	105.52125	37.67426	325.22931	-40.72053	1002.18964	-734.35443	-207.83308	542.98126	-386.36584	-47.77729	536.88519	-390.47919	-182.99861	610.47687	555.53186	-26.72897	599.44745	553.91223	
4697	46.960	-310.46609	-2.15871	-277.13211	45.98587	2.57529	-216.33563	-350.09540	42.59287	405.30234	106.31503	37.30704	325.61304	-37.75092	1003.33032	-730.27893	-207.11189	544.00757	-383.75351	-47.16902	537.60114	-387.86362	-183.87022	610.44189	558.01111	-27.18114	598.95288	556.80182	
4698	46.970	-309.44107	-1.36597	-276.68790	47.06654	3.57453	-215.85468	-351.72314	38.46630	403.31696	107.29070	36.81227	326.14291	-35.17211	1005.56378	-726.51379	-207.76794	545.14856	-381.86261	-47.44629	537.41882	-384.72769	-183.02249	612.08606	562.13263	-27.17257	598.92578	559.36719	
4699	46.980	-308.29504	1.02995	-275.87250	47.18031	2.80276	-213.14659	-351.91214	40.73695	405.72849	107.25666	38.62462	327.01483	-33.83036	1007.99701	-723.58337	-207.66516	545.54749	-379.21869	-46.66083	537.41327	-382.53494	-182.85423	614.14697	564.53961	-26.85591	600.27972	562.10889	
4700	46.990	-305.87143	5.88572	-273.22211	48.19770	3.59732	-213.58447	-350.06906	37.54109	407.30280	103.23567	41.27862	329.86536	-32.53448	1009.96246	-721.58887	-206.07170	546.21136	-376.34201	-46.08733	538.28125	-380.27591	-183.63593	614.21899	565.61798	-26.41690	600.50732	564.26685	
4701	47.000	-301.90216	9.69497	-267.37869	49.19917	3.76914	-212.66138	-349.12585	37.13137	406.13049	99.15540	44.52371	335.86572	-31.21814	1010.42120	-719.54266	-205.26738	547.64209	-374.60977	-45.36240	539.60388	-378.32507	-182.95567	613.94019	567.69873	-25.41400	599.70581	566.40521	
4702	47.010	-298.03448	19.84793	-263.30356	50.58323	3.94064	-212.84135	-347.30896	36.47876	407.18961	94.96535	50.82936	340.35229	-30.13391	1010.45483	-717.40356	-204.66655	549.03522	-373.42081	-44.09663	540.23389	-376.47971	-182.07274	613.10931	569.13348	-24.90282	598.56824	568.24463	
4703	47.020	-295.79434	30.75843	-262.37311	51.91568	4.13821	-212.71535	-346.46225	35.27624	407.46811	94.21808	60.26720	341.90216	-29.28641	1010.93048	-715.06665	-202.18187	549.51660	-371.38675	-42.64191	541.00616	-374.97037	-181.30226	612.01855	571.28680	-24.32810	597.22412	570.13403	
4704	47.030	-294.61386	42.71876	-260.22845	53.30319	4.38939	-212.23518	-345.51700	34.75205	407.77698	95.13368	72.13956	343.01334	-28.61884	1011.80109	-712.82233	-200.49680	549.59436	-369.86859	-40.98860	541.53723	-373.44583	-180.54156	610.90442	572.88062	-23.87465	596.39532	571.68616	
4705	47.040	-293.62320	56.27270	-259.61487	54.79058	4.87005	-211.94563	-344.80127	33.95541	408.13028	99.54486	85.25713	344.34509	-27.46194	1012.98871	-710.64410	-199.99104	550.15271	-368.90097	-40.08939	541.86230	-371.74860	-179.94972	609.66284	574.06042	-22.85125	595.30298	573.48578	
4706	47.050	-291.69748	68.19365	-258.19153	55.90599	4.97128	-211.73981	-343.38489	32.92042	408.40509	103.52812	98.94566	347.74051	-26.11453	1014.35516	-708.19360	-198.46307	550.32880	-367.72433	-38.41862	541.89905	-370.27103	-178.94070	608.32642	575.74664	-22.04212	594.05957	574.78766	
4707	47.060	-289.60590	81.37204	-254.86093	57.03024	5.24224	-211.53101	-342.45102	32.35402	408.64569	106.72193	112.43499	352.41873	-24.42345	1015.60754	-706.07605	-197.18970	550.49011	-366.68539	-36.94990	542.01337	-369.12952	-178.11681	607.10101	577.09241	-21.06589	592.67682	576.23346	
4708	47.070	-287.66446	92.92994	-251.17970	58.37304	5.49157	-211.12198	-341.19202	31.45855	408.87708	109.02447	124.94576	357.44455	-21.95717	1016.75983	-704.22650	-194.69156	550.05505	-365.07397	-35.42831	542.32648	-367.85220	-176.90486	605.72180	578.32892	-19.88642	591.70099	577.38251	
4709	47.080	-285.74133	103.05550	-247.10135	59.74988	5.96130	-210.86395	-339.90381	30.64416	409.00653	109.52085	135.45782	362.12460	-19.99215	1017.28400	-702.34448	-194.23286	550.29211	-364.17377	-33.79336	542.46735	-366.56033	-175.42064	604.57623	579.48920	-18.31193	591.14270	578.82629	
4710	47.090	-283.38376	112.46650	-243.13037	61.15683	6.25658	-210.52486	-338.50992	29.88344	409.51349	110.89850	143.91861	367.05447	-18.28867	1017.49738	-700.47040	-191.46198	549.94019	-362.29611	-32.16045	542.92499	-365.36591	-173.99689	603.84839	581.04987	-16.91093	590.47345	579.97308	
4711	47.100	-280.58340	119.97124	-238.97510	62.29786	6.80496	-210.18607	-337.55902	29.58142	409.76260	113.09863	150.96550	372.02548	-17.54242	1017.85535	-698.76788	-189.87407	550.15240	-361.19476	-29.91960	543.42664	-364.24973	-172.44603	602.89874	582.27356	-15.16310	589.88824	581.32428	
4712	47.110	-278.23328	125.28366	-234.55891	63.35205	7.20507	-209.92174	-336.36862	28.80055	410.16571	116.19781	155.79868	376.44308	-17.02209	1018.02423	-697.13806	-188.46486	550.79803	-360.22723	-28.51020	543.88049	-362.58618	-170.90593	602.11804	583.69598	-13.83241	589.06268	582.71118	
4713	47.120	-276.15488	127.72121	-229.93950	64.63591	7.56312	-209.48116	-334.96756	27.94597	410.58514	119.22926	159.13876	380.71390	-16.78717	1018.58325	-695.72467	-186.40671	551.19373	-358.95465	-26.28066	544.23663	-361.55078	-169.44696	601.20929	585.20416	-12.29209	588.61273	584.16595	
4714	47.130	-274.46906	127.22588	-225.17274	65.76234	8.01046	-209.04346	-333.82764	27.24275	410.68533	122.24872	159.27753	385.62686	-16.43684	1019.48077	-693.89624	-183.61121	550.77966	-357.54779	-23.71602	544.68726	-360.33972	-167.92201	600.25079	586.32666	-11.05521	587.96686	585.45447	
